<svg width="25" height="40" viewBox="0 0 25 40" fill="none" xmlns="http://www.w3.org/2000/svg">
<path d="M18.2943 32.984H17.7108C17.4833 32.984 17.265 32.8954 17.1041 32.7377C16.9432 32.58 16.8528 32.3661 16.8528 32.1431V25.1238H8.10429V32.1431C8.10429 32.3661 8.01388 32.58 7.85297 32.7377C7.69205 32.8954 7.47379 32.984 7.24622 32.984H6.67417C6.4466 32.984 6.22835 32.8954 6.06743 32.7377C5.90651 32.58 5.8161 32.3661 5.8161 32.1431V15.9779L8.10429 17.4729V23.2896H16.8518V17.4729L19.1524 15.9779V32.1431C19.1524 32.3661 19.062 32.58 18.9011 32.7377C18.7402 32.8954 18.5219 32.984 18.2943 32.984Z" fill="white"/>
<path d="M5.09535 12.1936L12.4843 16.3872L19.8732 12.1936L12.4843 8L5.09535 12.1936Z" fill="white"/>
</svg>
