<svg width="25" height="25" viewBox="0 0 25 25" fill="none" xmlns="http://www.w3.org/2000/svg">
<g clip-path="url(#clip0_5101_716)">
<path fill-rule="evenodd" clip-rule="evenodd" d="M21.875 1.5625H3.125C2.7106 1.5625 2.31317 1.72712 2.02015 2.02015C1.72712 2.31317 1.5625 2.7106 1.5625 3.125V21.2281L4.6875 18.1031C5.27341 17.517 6.06814 17.1877 6.89687 17.1875H21.875C22.2894 17.1875 22.6868 17.0229 22.9799 16.7299C23.2729 16.4368 23.4375 16.0394 23.4375 15.625V3.125C23.4375 2.7106 23.2729 2.31317 22.9799 2.02015C22.6868 1.72712 22.2894 1.5625 21.875 1.5625ZM3.125 0C2.2962 0 1.50134 0.32924 0.915291 0.915291C0.32924 1.50134 0 2.2962 0 3.125L0 23.1141C3.28357e-05 23.2687 0.0459259 23.4198 0.131871 23.5482C0.217816 23.6767 0.339948 23.7768 0.482811 23.8359C0.625674 23.8949 0.782845 23.9103 0.934431 23.88C1.08602 23.8497 1.2252 23.7751 1.33437 23.6656L5.79219 19.2078C6.08514 18.9148 6.48251 18.7501 6.89687 18.75H21.875C22.7038 18.75 23.4987 18.4208 24.0847 17.8347C24.6708 17.2487 25 16.4538 25 15.625V3.125C25 2.2962 24.6708 1.50134 24.0847 0.915291C23.4987 0.32924 22.7038 0 21.875 0L3.125 0Z" fill="#FBFBFB"/>
<path fill-rule="evenodd" clip-rule="evenodd" d="M4.6875 5.46875C4.6875 5.26155 4.76981 5.06284 4.91632 4.91632C5.06284 4.76981 5.26155 4.6875 5.46875 4.6875H19.5312C19.7385 4.6875 19.9372 4.76981 20.0837 4.91632C20.2302 5.06284 20.3125 5.26155 20.3125 5.46875C20.3125 5.67595 20.2302 5.87466 20.0837 6.02118C19.9372 6.16769 19.7385 6.25 19.5312 6.25H5.46875C5.26155 6.25 5.06284 6.16769 4.91632 6.02118C4.76981 5.87466 4.6875 5.67595 4.6875 5.46875ZM4.6875 9.375C4.6875 9.1678 4.76981 8.96909 4.91632 8.82257C5.06284 8.67606 5.26155 8.59375 5.46875 8.59375H19.5312C19.7385 8.59375 19.9372 8.67606 20.0837 8.82257C20.2302 8.96909 20.3125 9.1678 20.3125 9.375C20.3125 9.5822 20.2302 9.78091 20.0837 9.92743C19.9372 10.0739 19.7385 10.1562 19.5312 10.1562H5.46875C5.26155 10.1562 5.06284 10.0739 4.91632 9.92743C4.76981 9.78091 4.6875 9.5822 4.6875 9.375ZM4.6875 13.2812C4.6875 13.074 4.76981 12.8753 4.91632 12.7288C5.06284 12.5823 5.26155 12.5 5.46875 12.5H13.2812C13.4885 12.5 13.6872 12.5823 13.8337 12.7288C13.9802 12.8753 14.0625 13.074 14.0625 13.2812C14.0625 13.4885 13.9802 13.6872 13.8337 13.8337C13.6872 13.9802 13.4885 14.0625 13.2812 14.0625H5.46875C5.26155 14.0625 5.06284 13.9802 4.91632 13.8337C4.76981 13.6872 4.6875 13.4885 4.6875 13.2812Z" fill="#FBFBFB"/>
</g>
<defs>
<clipPath id="clip0_5101_716">
<rect width="25" height="25" fill="white"/>
</clipPath>
</defs>
</svg>
