<svg width="15" height="25" viewBox="0 0 15 25" fill="none" xmlns="http://www.w3.org/2000/svg">
<g clip-path="url(#clip0_5101_845)">
<path d="M13.2943 24.9842H12.7108C12.4833 24.9842 12.265 24.8956 12.1041 24.7379C11.9432 24.5802 11.8528 24.3663 11.8528 24.1432V17.124H3.10429V24.1432C3.10429 24.3663 3.01388 24.5802 2.85296 24.7379C2.69204 24.8956 2.47379 24.9842 2.24622 24.9842H1.67417C1.4466 24.9842 1.22834 24.8956 1.06742 24.7379C0.906505 24.5802 0.816101 24.3663 0.816101 24.1432V7.97803L3.10429 9.47307V15.2897H11.8518V9.47307L14.1524 7.97803V24.1432C14.1524 24.3663 14.062 24.5802 13.9011 24.7379C13.7402 24.8956 13.5219 24.9842 13.2943 24.9842Z" fill="white"/>
<path d="M0.0953369 4.19361L7.48427 8.38722L14.8732 4.19361L7.48427 0L0.0953369 4.19361Z" fill="white"/>
</g>
<defs>
<clipPath id="clip0_5101_845">
<rect width="15" height="25" fill="white"/>
</clipPath>
</defs>
</svg>
